<?xml version="1.0" encoding="UTF-8"?>
<svg width="198px" height="48px" viewBox="0 0 198 48" version="1.1" xmlns="http://www.w3.org/2000/svg" xmlns:xlink="http://www.w3.org/1999/xlink">
    <!-- Generator: Sketch 52 (66869) - http://www.bohemiancoding.com/sketch -->
    <title>Group</title>
    <desc>Created with Sketch.</desc>
    <g id="AUG-05" stroke="none" stroke-width="1" fill="none" fill-rule="evenodd">
        <g id="instagram" transform="translate(-333.000000, -439.000000)" fill-rule="nonzero">
            <g id="Group" transform="translate(333.000000, 439.000000)">
                <g id="app-logo">
                    <path d="M23.8382688,47.6214834 C30.7054781,47.6214834 36.8950846,44.7207398 41.2449727,40.0794309 C45.2343069,35.8226656 47.6765376,30.1015396 47.6765376,23.8107417 C47.6765376,10.6606643 37.0035487,0 23.8382688,0 C10.6729889,0 0,10.6606643 0,23.8107417 C0,30.6479962 2.88502648,36.8120019 7.50547893,41.1544859 L3.89994077,44.5332302 C3.36506629,45.034395 3.19084681,45.811001 3.46047049,46.492226 C3.73009418,47.1734509 4.3888737,47.6211232 5.12224801,47.6214834 L23.8382688,47.6214834 Z" id="Path" fill="#FF6A85"></path>
                    <path d="M24.9017363,28.990477 L20.986238,34.3086914 C19.6974357,36.0593123 17.0352517,35.8567024 16.0220722,33.9307232 L8.21946576,19.5910351 C7.45943322,18.145514 8.00653836,16.3528308 9.44379833,15.5874156 C10.1338944,15.2203293 10.9416298,15.1439758 11.6881056,15.3752658 C12.4345815,15.6065559 13.0581885,16.1264004 13.420809,16.8196631 L19.0385437,27.0052552 L21.7202461,23.3630159 L19.6654966,19.7284781 C18.8611042,18.3066541 19.3549775,16.4979754 20.7673959,15.6887205 C21.4459253,15.3003853 22.2510622,15.1991435 23.0043706,15.4074325 C23.757679,15.6157215 24.3969424,16.1163384 24.780486,16.7983357 L30.5827577,27.0621281 L46.9030517,4.15891225 C47.3559396,3.52129654 48.0440755,3.0909996 48.8148692,2.96343724 C49.585663,2.83587487 50.3754148,3.02158908 51.0090018,3.47939883 C52.3302239,4.4369103 52.6321724,6.28303432 51.6850463,7.61275986 L32.6871902,34.271961 C31.4368332,36.0267288 28.8006737,35.8875086 27.7395854,34.0101084 L24.9017363,28.990477 Z" id="Path" fill="#FFFFFF"></path>
                </g>
                <path d="M95.4847507,10 L101.388752,10 L89.8358602,37.646206 L83.8589696,37.646206 L79.6678574,27.5461254 L75.4767451,37.646206 L69.536299,37.646206 L60,15.1196678 L65.9404461,15.1196678 L72.7069665,31.5640407 L77.0074122,21.2059288 L74.6830658,15.1196678 L80.1132896,15.1196678 L86.6287482,31.6009023 L95.4847507,10 Z M108.131864,37.646206 C102.579866,37.646206 98.5984994,33.3974491 98.5984994,28.0403209 C98.5984994,22.6462469 102.579866,18.4344357 108.131864,18.4344357 C113.647335,18.4344357 117.665228,22.6462469 117.665228,28.0403209 C117.665228,33.3974491 113.647335,37.646206 108.131864,37.646206 Z M108.364385,32.9604084 C110.832685,32.9604084 112.549764,30.8067097 112.549764,28.0588872 C112.549764,25.3110648 110.832685,23.1202334 108.364385,23.1202334 C105.824539,23.1202334 104.179005,25.3110648 104.179005,28.0588872 C104.179005,30.8067097 105.824539,32.9604084 108.364385,32.9604084 Z M131.333775,18.9030155 C129.192042,18.9030155 127.308795,20.1525615 126.053296,22.1003833 L125.757885,19.270529 L120.920523,19.270529 L120.920523,37.646206 L126.311781,37.646206 L126.311781,28.4583675 C126.311781,25.4080051 128.453514,23.5704374 130.669099,23.5704374 C132.220009,23.5704374 133.03239,24.048205 133.54936,24.4157186 L135.801872,20.4833237 C134.694079,19.4175344 133.475507,18.9030155 131.333775,18.9030155 Z M155.333643,19.215402 L148.808875,19.215402 L142.579011,25.2607057 L142.579011,10 L137.196999,10 L137.196999,37.646206 L142.579011,37.646206 L142.579011,29.4260674 L148.808875,37.646206 L155.333643,37.646206 L147.113172,27.1406477 L155.333643,19.215402 Z M174.400372,28.0218835 C174.400372,28.5381307 174.364085,29.0543778 174.291512,29.6074998 L161.990335,29.6074998 C162.280628,32.0412366 163.478088,33.5162285 165.981867,33.5162285 C167.759913,33.5162285 168.921086,32.8893569 170.191119,30.9718674 L173.928645,32.8524821 C172.586039,35.8024661 169.719393,37.646206 166.090727,37.646206 C159.740562,37.646206 156.728769,33.5531033 156.728769,28.0587583 C156.728769,22.601288 160.103429,18.4344357 165.909294,18.4344357 C171.170859,18.4344357 174.400372,22.1956652 174.400372,28.0218835 Z M166.122158,22.6516536 C163.901061,22.6516536 162.753495,23.9492591 162.309275,25.9317119 L169.74995,25.9317119 C169.379767,23.8411253 168.269219,22.6516536 166.122158,22.6516536 Z M197.187437,18.9030155 L190.806372,18.9030155 L186.258947,24.2757511 L181.711521,18.9030155 L175.330456,18.9030155 L183.031741,28.0403209 L175.330456,37.1776262 L181.784867,37.1776262 L186.258947,31.8414399 L190.7697,37.1776262 L197.187437,37.1776262 L189.449479,28.0768701 L197.187437,18.9030155 Z" id="Shape" fill="#FF6A85"></path>
            </g>
        </g>
    </g>
</svg>